<?xml version="1.0" encoding="UTF-8"?>
<svg width="19px" height="12px" viewBox="0 0 19 12" version="1.1" xmlns="http://www.w3.org/2000/svg" xmlns:xlink="http://www.w3.org/1999/xlink">
    <!-- Generator: Sketch 50.2 (55047) - http://www.bohemiancoding.com/sketch -->
    <title>Right Arrow Icon</title>
    <desc>Created with Sketch.</desc>
    <defs></defs>
    <g id="App" stroke="none" stroke-width="1" fill="none" fill-rule="evenodd">
        <g id="Desktop" transform="translate(-843.000000, -251.000000)" fill="#FFFFFF" fill-rule="nonzero">
            <g id="DropDown" transform="translate(512.000000, 217.000000)">
                <g id="Right-Arrow-Icon" transform="translate(340.500000, 40.000000) rotate(-270.000000) translate(-340.500000, -40.000000) translate(334.500000, 30.500000)">
                    <path d="M11.0924129,8.69276556 L2.45563616,0.301251906 C2.25587806,0.107009583 1.98921835,0 1.70488651,0 C1.42055467,0 1.15389496,0.107009583 0.954136856,0.301251906 L0.318098214,0.919086604 C-0.0957765953,1.32167567 -0.0957765953,1.97599787 0.318098214,2.3779737 L7.57061127,9.42466205 L0.310051087,16.4791692 C0.110292982,16.6734115 1.70530257e-13,16.9323501 1.70530257e-13,17.2084594 C1.70530257e-13,17.4848753 0.110292982,17.7438139 0.310051087,17.9382096 L0.946089729,18.555891 C1.14600562,18.7501333 1.41250755,18.8571429 1.69683938,18.8571429 C1.98117122,18.8571429 2.24783093,18.7501333 2.44758904,18.555891 L11.0924129,10.1567119 C11.2926444,9.96185629 11.4026218,9.70169116 11.4019907,9.42512198 C11.4026218,9.14747964 11.2926444,8.88746781 11.0924129,8.69276556 Z" id="Shape"></path>
                </g>
            </g>
        </g>
    </g>
</svg>