<?xml version="1.0" encoding="UTF-8"?>
<svg width="25px" height="25px" viewBox="0 0 25 25" version="1.1" xmlns="http://www.w3.org/2000/svg" xmlns:xlink="http://www.w3.org/1999/xlink">
    <!-- Generator: Sketch 50.2 (55047) - http://www.bohemiancoding.com/sketch -->
    <title>Delete Icon</title>
    <desc>Created with Sketch.</desc>
    <defs></defs>
    <g id="App" stroke="none" stroke-width="1" fill="none" fill-rule="evenodd">
        <g id="Desktop" transform="translate(-837.000000, -396.000000)" fill="#DDDDDD" fill-rule="nonzero">
            <g id="Layout" transform="translate(122.000000, 368.000000)">
                <g id="Right-Col" transform="translate(390.000000, 0.000000)">
                    <g id="USD-Row">
                        <g id="Delete-Icon" transform="translate(337.500000, 40.500000) scale(-1, 1) translate(-337.500000, -40.500000) translate(325.000000, 28.000000)">
                            <path d="M12.5,0 C5.59645969,0 0,5.59645969 0,12.5 C0,19.4035403 5.59645969,25 12.5,25 C19.4035403,25 25,19.4035403 25,12.5 C25,5.59645969 19.4035403,0 12.5,0 Z M16.7268519,14.7946078 C17.2604575,15.3282135 17.2604575,16.1933007 16.7268519,16.7269063 C16.4600763,16.9936819 16.1104031,17.1270697 15.7607298,17.1270697 C15.4110566,17.1270697 15.0613834,16.9936819 14.7946078,16.7269063 L12.5,14.4322985 L10.2054466,16.7269063 C9.93867102,16.9936819 9.58899782,17.1270697 9.23932462,17.1270697 C8.88965142,17.1270697 8.53997821,16.9936819 8.27320261,16.7269063 C7.73959695,16.1933551 7.73959695,15.3282135 8.27320261,14.7946078 L10.5678105,12.5 L8.27320261,10.2053922 C7.73959695,9.67178649 7.73959695,8.80669935 8.27320261,8.27309368 C8.80680828,7.73948802 9.67189542,7.73948802 10.2055011,8.27309368 L12.5000545,10.5677015 L14.7946078,8.27309368 C15.3282135,7.73948802 16.1933007,7.73948802 16.7269063,8.27309368 C17.260512,8.80664488 17.260512,9.67178649 16.7269063,10.2053922 L14.432244,12.5 L16.7268519,14.7946078 Z" id="Shape"></path>
                        </g>
                    </g>
                </g>
            </g>
        </g>
    </g>
</svg>